# xmcd CD database file
#
# Track frame offsets:
#	150
#	15080
#	29218
#	39601
#	51682
#	67204
#	77672
#	98475
#	106770
#	119609
#
# Disc length: 1866 seconds
#
# Revision: 0
# Processed by: cddbd v1.5.2PL0 Copyright (c) Steve Scherf et al.
# Submitted via: CDex 1.78
#
DISCID=8407480a
DTITLE=chainsaw surgery - necrocannibalistic perversions
DYEAR=2014
DGENRE=brutal death metal
TTITLE0=lugubere lust moord
TTITLE1=atrociously mutilated and molested
TTITLE2=putrescent urogenital deformity
TTITLE3=rancid collection of disemboweled entrails
TTITLE4=bestial cadaver copulation
TTITLE5=to defile her decomposing genitals
TTITLE6=necrocannibalistic perversions
TTITLE7=abhorrent uterovaginal excision
TTITLE8=exulceration of eviscerated intestines
TTITLE9=sadistische lijkschennis
EXTD=YEAR: 2014
EXTT0=
EXTT1=
EXTT2=
EXTT3=
EXTT4=
EXTT5=
EXTT6=
EXTT7=
EXTT8=
EXTT9=
PLAYORDER=
